<svg xmlns="http://www.w3.org/2000/svg" xmlns:xlink="http://www.w3.org/1999/xlink" width="1024" zoomAndPan="magnify" viewBox="0 0 768 767.999994" height="1024" preserveAspectRatio="xMidYMid meet" version="1.0"><defs><clipPath id="40e2e129e3"><path d="M 14.046875 22.121094 L 737.804688 22.121094 L 737.804688 745.878906 L 14.046875 745.878906 Z M 14.046875 22.121094 " clip-rule="nonzero"/></clipPath><clipPath id="98291e7997"><path d="M 375.925781 22.121094 C 176.066406 22.121094 14.046875 184.140625 14.046875 384 C 14.046875 583.859375 176.066406 745.878906 375.925781 745.878906 C 575.785156 745.878906 737.804688 583.859375 737.804688 384 C 737.804688 184.140625 575.785156 22.121094 375.925781 22.121094 Z M 375.925781 22.121094 " clip-rule="nonzero"/></clipPath><clipPath id="16d5ef9e1d"><path d="M 51.742188 59.816406 L 698.777344 59.816406 L 698.777344 706.851562 L 51.742188 706.851562 Z M 51.742188 59.816406 " clip-rule="nonzero"/></clipPath><clipPath id="a408acdffd"><path d="M 375.261719 59.816406 C 196.585938 59.816406 51.742188 204.660156 51.742188 383.335938 C 51.742188 562.007812 196.585938 706.851562 375.261719 706.851562 C 553.933594 706.851562 698.777344 562.007812 698.777344 383.335938 C 698.777344 204.660156 553.933594 59.816406 375.261719 59.816406 Z M 375.261719 59.816406 " clip-rule="nonzero"/></clipPath><clipPath id="7422c06253"><path d="M 312.367188 98.386719 L 459.292969 98.386719 L 459.292969 489 L 312.367188 489 Z M 312.367188 98.386719 " clip-rule="nonzero"/></clipPath><clipPath id="ece3259a19"><path d="M 329 544 L 442 544 L 442 656.386719 L 329 656.386719 Z M 329 544 " clip-rule="nonzero"/></clipPath></defs><rect x="-76.8" width="921.6" fill="#ffffff" y="-76.799999" height="921.599993" fill-opacity="1"/><rect x="-76.8" width="921.6" fill="#ffcdd2" y="-76.799999" height="921.599993" fill-opacity="1"/><g clip-path="url(#40e2e129e3)"><g clip-path="url(#98291e7997)"><path fill="#000000" d="M 14.046875 22.121094 L 737.804688 22.121094 L 737.804688 745.878906 L 14.046875 745.878906 Z M 14.046875 22.121094 " fill-opacity="1" fill-rule="nonzero"/></g></g><g clip-path="url(#16d5ef9e1d)"><g clip-path="url(#a408acdffd)"><path fill="#be1e2d" d="M 51.742188 59.816406 L 698.777344 59.816406 L 698.777344 706.851562 L 51.742188 706.851562 Z M 51.742188 59.816406 " fill-opacity="1" fill-rule="nonzero"/></g></g><g clip-path="url(#7422c06253)"><path fill="#040606" d="M 385.730469 98.386719 C 341.4375 98.386719 307.109375 137.375 313.0625 181.316406 L 354.183594 461.304688 C 356.265625 477.109375 369.808594 488.996094 385.832031 488.996094 C 401.800781 488.996094 415.34375 477.109375 417.527344 461.304688 L 458.648438 181.316406 C 464.351562 137.375 430.078125 98.386719 385.730469 98.386719 " fill-opacity="1" fill-rule="nonzero"/></g><g clip-path="url(#ece3259a19)"><path fill="#040606" d="M 385.730469 544.777344 C 354.828125 544.777344 329.878906 569.746094 329.878906 600.605469 C 329.878906 631.421875 354.828125 656.386719 385.730469 656.386719 C 416.632812 656.386719 441.585938 631.421875 441.585938 600.605469 C 441.585938 569.746094 416.632812 544.777344 385.730469 544.777344 " fill-opacity="1" fill-rule="nonzero"/></g></svg>