<svg xmlns="http://www.w3.org/2000/svg" xmlns:xlink="http://www.w3.org/1999/xlink" width="1024" zoomAndPan="magnify" viewBox="0 0 768 767.999994" height="1024" preserveAspectRatio="xMidYMid meet" version="1.0"><defs><clipPath id="4f4baea417"><path d="M 24.460938 24.460938 L 743.539062 24.460938 L 743.539062 743.539062 L 24.460938 743.539062 Z M 24.460938 24.460938 " clip-rule="nonzero"/></clipPath><clipPath id="fcf9082328"><path d="M 384 24.460938 C 185.433594 24.460938 24.460938 185.433594 24.460938 384 C 24.460938 582.566406 185.433594 743.539062 384 743.539062 C 582.566406 743.539062 743.539062 582.566406 743.539062 384 C 743.539062 185.433594 582.566406 24.460938 384 24.460938 Z M 384 24.460938 " clip-rule="nonzero"/></clipPath><clipPath id="3cdb04125d"><path d="M 61.914062 61.914062 L 704.765625 61.914062 L 704.765625 704.765625 L 61.914062 704.765625 Z M 61.914062 61.914062 " clip-rule="nonzero"/></clipPath><clipPath id="20304f73c0"><path d="M 383.339844 61.914062 C 205.820312 61.914062 61.914062 205.820312 61.914062 383.339844 C 61.914062 560.859375 205.820312 704.765625 383.339844 704.765625 C 560.859375 704.765625 704.765625 560.859375 704.765625 383.339844 C 704.765625 205.820312 560.859375 61.914062 383.339844 61.914062 Z M 383.339844 61.914062 " clip-rule="nonzero"/></clipPath></defs><rect x="-76.8" width="921.6" fill="#ffffff" y="-76.799999" height="921.599993" fill-opacity="1"/><rect x="-76.8" width="921.6" fill="#ffcdd2" y="-76.799999" height="921.599993" fill-opacity="1"/><g clip-path="url(#4f4baea417)"><g clip-path="url(#fcf9082328)"><path fill="#000000" d="M 24.460938 24.460938 L 743.539062 24.460938 L 743.539062 743.539062 L 24.460938 743.539062 Z M 24.460938 24.460938 " fill-opacity="1" fill-rule="nonzero"/></g></g><g clip-path="url(#3cdb04125d)"><g clip-path="url(#20304f73c0)"><path fill="#be1e2d" d="M 61.914062 61.914062 L 704.765625 61.914062 L 704.765625 704.765625 L 61.914062 704.765625 Z M 61.914062 61.914062 " fill-opacity="1" fill-rule="nonzero"/></g></g><path fill="#000000" d="M 524.289062 492.011719 C 483.339844 492.011719 480.398438 513.011719 454.359375 513.011719 C 429.367188 513.011719 424.539062 492.011719 384.21875 492.011719 C 343.480469 492.011719 340.328125 513.011719 314.289062 513.011719 C 288.25 513.011719 285.308594 492.011719 244.359375 492.011719 C 203.410156 492.011719 200.257812 513.011719 174.21875 513.011719 L 174.21875 555.011719 C 215.167969 555.011719 218.527344 534.011719 244.359375 534.011719 C 270.398438 534.011719 273.339844 555.011719 314.289062 555.011719 C 355.238281 555.011719 358.386719 534.011719 384.21875 534.011719 C 410.046875 534.011719 413.828125 555.011719 454.359375 555.011719 C 494.886719 555.011719 498.457031 534.011719 524.289062 534.011719 C 549.910156 534.011719 553.6875 555.011719 594.21875 555.011719 L 594.21875 513.011719 C 568.179688 513.011719 565.238281 492.011719 524.289062 492.011719 M 314.5 460.511719 C 355.449219 460.511719 358.386719 439.511719 384.21875 439.511719 C 409.417969 439.511719 414.25 460.511719 454.359375 460.511719 C 495.308594 460.511719 498.25 439.511719 524.289062 439.511719 C 549.277344 439.511719 553.6875 460.511719 594.21875 460.511719 L 594.21875 418.511719 C 580.570312 418.511719 573.21875 412.632812 562.71875 406.960938 L 520.71875 248.832031 L 564.1875 266.683594 L 579.726562 227.621094 L 337.597656 135.011719 L 174.21875 336.824219 L 207.1875 362.652344 L 236.378906 325.273438 L 255.910156 398.351562 C 252.128906 397.511719 248.558594 397.511719 244.148438 397.511719 C 203.199219 397.511719 200.257812 418.511719 174.21875 418.511719 L 174.21875 460.511719 C 214.117188 460.511719 219.789062 439.511719 244.570312 439.511719 C 269.558594 439.511719 274.386719 460.511719 314.5 460.511719 M 427.058594 306.792969 L 456.878906 418.511719 C 428.738281 420.191406 426.21875 397.511719 384.21875 397.511719 C 376.449219 397.511719 370.359375 398.351562 364.898438 399.613281 L 345.789062 328.421875 Z M 427.058594 306.792969 " fill-opacity="1" fill-rule="nonzero"/></svg>