<svg xmlns="http://www.w3.org/2000/svg" xmlns:xlink="http://www.w3.org/1999/xlink" width="1024" zoomAndPan="magnify" viewBox="0 0 768 767.999994" height="1024" preserveAspectRatio="xMidYMid meet" version="1.0"><defs><clipPath id="12c245bd96"><path d="M 124.558594 10.546875 L 651 10.546875 L 651 739.546875 L 124.558594 739.546875 Z M 124.558594 10.546875 " clip-rule="nonzero"/></clipPath><clipPath id="82e56bdb62"><path d="M 157.175781 55.738281 L 618.425781 55.738281 L 618.425781 694.738281 L 157.175781 694.738281 Z M 157.175781 55.738281 " clip-rule="nonzero"/></clipPath><clipPath id="a56f47ba1f"><path d="M 338.507812 233.511719 L 436.941406 233.511719 L 436.941406 495 L 338.507812 495 Z M 338.507812 233.511719 " clip-rule="nonzero"/></clipPath><clipPath id="7aae8e755c"><path d="M 350 532 L 426 532 L 426 607.011719 L 350 607.011719 Z M 350 532 " clip-rule="nonzero"/></clipPath></defs><rect x="-76.8" width="921.6" fill="#ffffff" y="-76.799999" height="921.599993" fill-opacity="1"/><rect x="-76.8" width="921.6" fill="#fff9c4" y="-76.799999" height="921.599993" fill-opacity="1"/><g clip-path="url(#12c245bd96)"><path fill="#000000" d="M 650.730469 476.976562 C 650.730469 622.296875 532.949219 740.117188 387.589844 740.117188 C 242.234375 740.117188 124.414062 622.296875 124.414062 476.976562 C 124.414062 331.621094 387.589844 10.65625 387.589844 10.65625 C 387.589844 10.65625 650.730469 331.621094 650.730469 476.976562 " fill-opacity="1" fill-rule="nonzero"/></g><g clip-path="url(#82e56bdb62)"><path fill="#f2ff00" d="M 618.144531 464.359375 C 618.144531 591.671875 514.957031 694.890625 387.613281 694.890625 C 260.273438 694.890625 157.054688 591.671875 157.054688 464.359375 C 157.054688 337.019531 387.613281 55.832031 387.613281 55.832031 C 387.613281 55.832031 618.144531 337.019531 618.144531 464.359375 " fill-opacity="1" fill-rule="nonzero"/></g><g clip-path="url(#a56f47ba1f)"><path fill="#040606" d="M 387.65625 233.511719 C 357.980469 233.511719 334.984375 259.605469 338.972656 289.019531 L 366.519531 476.429688 C 367.917969 487.007812 376.988281 494.964844 387.722656 494.964844 C 398.425781 494.964844 407.496094 487.007812 408.957031 476.429688 L 436.507812 289.019531 C 440.328125 259.605469 417.367188 233.511719 387.65625 233.511719 " fill-opacity="1" fill-rule="nonzero"/></g><g clip-path="url(#7aae8e755c)"><path fill="#040606" d="M 387.65625 532.304688 C 366.953125 532.304688 350.238281 549.015625 350.238281 569.671875 C 350.238281 590.296875 366.953125 607.011719 387.65625 607.011719 C 408.359375 607.011719 425.078125 590.296875 425.078125 569.671875 C 425.078125 549.015625 408.359375 532.304688 387.65625 532.304688 " fill-opacity="1" fill-rule="nonzero"/></g></svg>