<svg xmlns="http://www.w3.org/2000/svg" xmlns:xlink="http://www.w3.org/1999/xlink" width="1024" zoomAndPan="magnify" viewBox="0 0 768 767.999994" height="1024" preserveAspectRatio="xMidYMid meet" version="1.0"><defs><clipPath id="52b0be23b5"><path d="M 38.964844 38.964844 L 727.90625 38.964844 L 727.90625 727.90625 L 38.964844 727.90625 Z M 38.964844 38.964844 " clip-rule="nonzero"/></clipPath><clipPath id="755920af30"><path d="M 383.433594 38.964844 C 193.1875 38.964844 38.964844 193.1875 38.964844 383.433594 C 38.964844 573.679688 193.1875 727.90625 383.433594 727.90625 C 573.679688 727.90625 727.90625 573.679688 727.90625 383.433594 C 727.90625 193.1875 573.679688 38.964844 383.433594 38.964844 Z M 383.433594 38.964844 " clip-rule="nonzero"/></clipPath><clipPath id="9f11218433"><path d="M 76.800781 76.234375 L 691.050781 76.234375 L 691.050781 690.484375 L 76.800781 690.484375 Z M 76.800781 76.234375 " clip-rule="nonzero"/></clipPath><clipPath id="c0bd8588bc"><path d="M 76.800781 151.234375 L 76.800781 615.636719 C 76.800781 657.058594 110.378906 690.636719 151.800781 690.636719 L 616.199219 690.636719 C 657.621094 690.636719 691.199219 657.058594 691.199219 615.636719 L 691.199219 151.234375 C 691.199219 109.8125 657.621094 76.234375 616.199219 76.234375 L 151.800781 76.234375 C 110.378906 76.234375 76.800781 109.8125 76.800781 151.234375 Z M 76.800781 151.234375 " clip-rule="nonzero"/></clipPath><clipPath id="8460569146"><path d="M 342 192 L 426 192 L 426 575 L 342 575 Z M 342 192 " clip-rule="nonzero"/></clipPath><clipPath id="6a60608716"><path d="M 76.800781 151.234375 L 76.800781 615.636719 C 76.800781 657.058594 110.378906 690.636719 151.800781 690.636719 L 616.199219 690.636719 C 657.621094 690.636719 691.199219 657.058594 691.199219 615.636719 L 691.199219 151.234375 C 691.199219 109.8125 657.621094 76.234375 616.199219 76.234375 L 151.800781 76.234375 C 110.378906 76.234375 76.800781 109.8125 76.800781 151.234375 Z M 76.800781 151.234375 " clip-rule="nonzero"/></clipPath></defs><rect x="-76.8" width="921.6" fill="#ffffff" y="-76.799999" height="921.599993" fill-opacity="1"/><rect x="-76.8" width="921.6" fill="#fff9c4" y="-76.799999" height="921.599993" fill-opacity="1"/><g clip-path="url(#52b0be23b5)"><g clip-path="url(#755920af30)"><path fill="#000000" d="M 38.964844 38.964844 L 727.90625 38.964844 L 727.90625 727.90625 L 38.964844 727.90625 Z M 38.964844 38.964844 " fill-opacity="1" fill-rule="nonzero"/></g></g><g clip-path="url(#9f11218433)"><g clip-path="url(#c0bd8588bc)"><path fill="#f2ff00" d="M 691.292969 383.484375 C 691.292969 388.511719 691.171875 393.535156 690.925781 398.558594 C 690.679688 403.582031 690.308594 408.59375 689.816406 413.597656 C 689.320312 418.601562 688.707031 423.589844 687.96875 428.566406 C 687.230469 433.539062 686.371094 438.492188 685.390625 443.421875 C 684.410156 448.355469 683.308594 453.261719 682.085938 458.136719 C 680.867188 463.015625 679.523438 467.859375 678.066406 472.671875 C 676.605469 477.484375 675.027344 482.257812 673.335938 486.992188 C 671.640625 491.726562 669.832031 496.414062 667.90625 501.0625 C 665.984375 505.707031 663.945312 510.300781 661.796875 514.847656 C 659.644531 519.394531 657.386719 523.882812 655.015625 528.316406 C 652.644531 532.753906 650.167969 537.125 647.582031 541.4375 C 644.996094 545.75 642.308594 550 639.515625 554.179688 C 636.71875 558.359375 633.824219 562.46875 630.832031 566.507812 C 627.835938 570.546875 624.742188 574.511719 621.554688 578.398438 C 618.363281 582.285156 615.078125 586.089844 611.703125 589.816406 C 608.324219 593.542969 604.859375 597.183594 601.304688 600.738281 C 597.75 604.292969 594.109375 607.761719 590.382812 611.136719 C 586.65625 614.515625 582.851562 617.796875 578.964844 620.988281 C 575.074219 624.175781 571.113281 627.269531 567.074219 630.265625 C 563.035156 633.261719 558.925781 636.15625 554.746094 638.949219 C 550.5625 641.742188 546.316406 644.433594 542.003906 647.015625 C 537.691406 649.601562 533.316406 652.078125 528.882812 654.449219 C 524.449219 656.820312 519.957031 659.082031 515.414062 661.230469 C 510.867188 663.378906 506.273438 665.417969 501.625 667.339844 C 496.980469 669.265625 492.289062 671.074219 487.554688 672.769531 C 482.820312 674.460938 478.046875 676.039062 473.238281 677.5 C 468.425781 678.957031 463.582031 680.300781 458.703125 681.519531 C 453.824219 682.742188 448.921875 683.84375 443.988281 684.824219 C 439.058594 685.804688 434.105469 686.664062 429.128906 687.402344 C 424.15625 688.140625 419.167969 688.757812 414.164062 689.25 C 409.160156 689.742188 404.144531 690.113281 399.125 690.359375 C 394.101562 690.605469 389.078125 690.730469 384.046875 690.730469 C 379.019531 690.730469 373.996094 690.605469 368.972656 690.359375 C 363.949219 690.113281 358.9375 689.742188 353.933594 689.25 C 348.929688 688.757812 343.941406 688.140625 338.964844 687.402344 C 333.992188 686.664062 329.039062 685.804688 324.105469 684.824219 C 319.175781 683.84375 314.269531 682.742188 309.394531 681.519531 C 304.515625 680.300781 299.671875 678.957031 294.859375 677.5 C 290.046875 676.039062 285.273438 674.460938 280.539062 672.769531 C 275.804688 671.074219 271.117188 669.265625 266.46875 667.339844 C 261.824219 665.417969 257.230469 663.378906 252.683594 661.230469 C 248.136719 659.082031 243.648438 656.820312 239.214844 654.449219 C 234.777344 652.078125 230.40625 649.601562 226.089844 647.015625 C 221.777344 644.433594 217.53125 641.742188 213.351562 638.949219 C 209.171875 636.15625 205.058594 633.261719 201.023438 630.265625 C 196.984375 627.269531 193.019531 624.179688 189.132812 620.988281 C 185.246094 617.796875 181.441406 614.515625 177.714844 611.136719 C 173.988281 607.761719 170.347656 604.292969 166.792969 600.738281 C 163.238281 597.183594 159.769531 593.542969 156.394531 589.816406 C 153.015625 586.089844 149.734375 582.285156 146.542969 578.398438 C 143.355469 574.511719 140.261719 570.546875 137.265625 566.507812 C 134.269531 562.46875 131.375 558.359375 128.582031 554.179688 C 125.789062 550 123.097656 545.75 120.515625 541.4375 C 117.929688 537.125 115.449219 532.753906 113.082031 528.316406 C 110.710938 523.882812 108.449219 519.394531 106.300781 514.847656 C 104.152344 510.300781 102.113281 505.707031 100.1875 501.0625 C 98.265625 496.414062 96.457031 491.726562 94.761719 486.992188 C 93.066406 482.257812 91.492188 477.484375 90.03125 472.671875 C 88.570312 467.859375 87.230469 463.015625 86.007812 458.136719 C 84.789062 453.261719 83.6875 448.355469 82.707031 443.421875 C 81.722656 438.492188 80.863281 433.539062 80.128906 428.566406 C 79.390625 423.589844 78.773438 418.601562 78.28125 413.597656 C 77.789062 408.59375 77.417969 403.582031 77.171875 398.558594 C 76.925781 393.535156 76.800781 388.511719 76.800781 383.484375 C 76.800781 378.453125 76.925781 373.429688 77.171875 368.40625 C 77.417969 363.382812 77.789062 358.371094 78.28125 353.367188 C 78.773438 348.363281 79.390625 343.375 80.128906 338.402344 C 80.863281 333.425781 81.722656 328.472656 82.707031 323.542969 C 83.6875 318.609375 84.789062 313.707031 86.007812 308.828125 C 87.230469 303.949219 88.570312 299.105469 90.03125 294.292969 C 91.492188 289.480469 93.066406 284.707031 94.761719 279.972656 C 96.457031 275.242188 98.265625 270.550781 100.1875 265.90625 C 102.113281 261.257812 104.152344 256.664062 106.300781 252.117188 C 108.449219 247.574219 110.710938 243.082031 113.082031 238.648438 C 115.453125 234.214844 117.929688 229.839844 120.515625 225.527344 C 123.097656 221.214844 125.789062 216.964844 128.582031 212.785156 C 131.375 208.605469 134.269531 204.496094 137.265625 200.457031 C 140.261719 196.417969 143.355469 192.453125 146.542969 188.566406 C 149.734375 184.679688 153.015625 180.875 156.394531 177.148438 C 159.769531 173.421875 163.238281 169.78125 166.792969 166.226562 C 170.347656 162.671875 173.988281 159.203125 177.714844 155.828125 C 181.441406 152.453125 185.246094 149.167969 189.132812 145.976562 C 193.019531 142.789062 196.984375 139.695312 201.023438 136.699219 C 205.058594 133.703125 209.171875 130.808594 213.351562 128.015625 C 217.53125 125.222656 221.777344 122.535156 226.09375 119.949219 C 230.40625 117.363281 234.777344 114.886719 239.214844 112.515625 C 243.648438 110.144531 248.136719 107.886719 252.683594 105.734375 C 257.230469 103.585938 261.824219 101.546875 266.46875 99.625 C 271.117188 97.699219 275.804688 95.890625 280.539062 94.195312 C 285.273438 92.503906 290.046875 90.925781 294.859375 89.464844 C 299.671875 88.007812 304.515625 86.664062 309.394531 85.445312 C 314.269531 84.222656 319.175781 83.121094 324.105469 82.140625 C 329.039062 81.160156 333.992188 80.300781 338.964844 79.5625 C 343.941406 78.824219 348.929688 78.207031 353.933594 77.714844 C 358.9375 77.222656 363.949219 76.851562 368.972656 76.605469 C 373.996094 76.359375 379.019531 76.234375 384.046875 76.234375 C 389.078125 76.234375 394.101562 76.359375 399.125 76.605469 C 404.144531 76.851562 409.160156 77.222656 414.164062 77.714844 C 419.167969 78.207031 424.15625 78.824219 429.128906 79.5625 C 434.105469 80.300781 439.058594 81.160156 443.988281 82.140625 C 448.921875 83.121094 453.824219 84.222656 458.703125 85.445312 C 463.582031 86.664062 468.425781 88.007812 473.238281 89.464844 C 478.046875 90.925781 482.820312 92.503906 487.554688 94.195312 C 492.289062 95.890625 496.980469 97.699219 501.625 99.625 C 506.273438 101.546875 510.867188 103.585938 515.414062 105.734375 C 519.957031 107.886719 524.449219 110.144531 528.882812 112.515625 C 533.316406 114.886719 537.691406 117.363281 542.003906 119.949219 C 546.316406 122.535156 550.5625 125.222656 554.746094 128.015625 C 558.925781 130.808594 563.035156 133.703125 567.074219 136.699219 C 571.113281 139.695312 575.074219 142.789062 578.964844 145.976562 C 582.851562 149.167969 586.65625 152.449219 590.382812 155.828125 C 594.109375 159.203125 597.75 162.671875 601.304688 166.226562 C 604.859375 169.78125 608.324219 173.421875 611.703125 177.148438 C 615.078125 180.875 618.363281 184.679688 621.554688 188.566406 C 624.742188 192.453125 627.835938 196.417969 630.832031 200.457031 C 633.824219 204.496094 636.71875 208.605469 639.515625 212.785156 C 642.308594 216.964844 644.996094 221.214844 647.582031 225.527344 C 650.167969 229.839844 652.644531 234.214844 655.015625 238.648438 C 657.386719 243.082031 659.644531 247.570312 661.796875 252.117188 C 663.945312 256.664062 665.984375 261.257812 667.90625 265.902344 C 669.832031 270.550781 671.640625 275.238281 673.335938 279.972656 C 675.027344 284.707031 676.605469 289.480469 678.066406 294.292969 C 679.523438 299.105469 680.867188 303.949219 682.085938 308.828125 C 683.308594 313.707031 684.410156 318.609375 685.390625 323.542969 C 686.371094 328.472656 687.230469 333.425781 687.96875 338.398438 C 688.707031 343.375 689.320312 348.363281 689.816406 353.367188 C 690.308594 358.371094 690.679688 363.382812 690.925781 368.40625 C 691.171875 373.429688 691.292969 378.453125 691.292969 383.484375 Z M 691.292969 383.484375 " fill-opacity="1" fill-rule="nonzero"/></g></g><g clip-path="url(#8460569146)"><g clip-path="url(#6a60608716)"><path fill="#0d1b27" d="M 353.167969 205.664062 C 346.230469 214.039062 342.761719 225.785156 342.761719 240.898438 C 342.761719 252.003906 343.488281 270.304688 344.941406 295.796875 L 352.683594 426.628906 C 354.136719 443.5625 356.554688 456.21875 359.941406 464.59375 C 369.210938 481.660156 398.363281 480.847656 405.972656 464.046875 C 409.683594 455.488281 412.105469 443.199219 413.234375 427.175781 L 423.636719 292.519531 C 424.765625 280.140625 425.332031 267.9375 425.332031 255.921875 C 425.332031 235.527344 422.992188 219.957031 418.3125 209.214844 C 405.53125 187.671875 368.375 187.886719 353.167969 205.664062 Z M 353.167969 506.703125 C 344.378906 514.960938 342.777344 525.210938 342.761719 535.378906 C 342.742188 546.117188 344.855469 559.539062 353.652344 565.699219 C 370.25 577.320312 397.875 577.09375 414.441406 565.425781 C 423.148438 559.289062 425.414062 546.03125 425.332031 535.378906 C 425.253906 525.152344 422.859375 512.507812 414.441406 506.699219 C 397.628906 495.101562 367.609375 492.257812 353.167969 506.699219 Z M 353.167969 506.703125 " fill-opacity="1" fill-rule="nonzero"/></g></g></svg>