<svg xmlns="http://www.w3.org/2000/svg" xmlns:xlink="http://www.w3.org/1999/xlink" width="1024" zoomAndPan="magnify" viewBox="0 0 768 767.999994" height="1024" preserveAspectRatio="xMidYMid meet" version="1.0"><rect x="-76.8" width="921.6" fill="#ffffff" y="-76.799999" height="921.599993" fill-opacity="1"/><rect x="-76.8" width="921.6" fill="#c0e3f4" y="-76.799999" height="921.599993" fill-opacity="1"/><path fill="#000000" d="M 199.414062 472.601562 C 180.007812 480.222656 144.417969 503.320312 133.03125 515.273438 C 111.359375 538.050781 116.5 571.894531 143.703125 585.347656 C 173.464844 600.078125 204.503906 579.984375 206.546875 543.953125 C 207.875 520.363281 203.792969 497.097656 199.414062 472.601562 Z M 199.414062 472.601562 " fill-opacity="1" fill-rule="nonzero"/><path fill="#000000" d="M 365.902344 469.648438 C 340.839844 486.324219 316.785156 497.785156 298.117188 516.96875 C 285.644531 529.785156 283.039062 551.183594 291.304688 567.242188 C 299.246094 582.714844 318.457031 592.0625 337 589.503906 C 353.875 587.167969 367.722656 573.320312 371.164062 554.726562 C 376.332031 526.980469 369.910156 500.046875 365.902344 469.671875 Z M 365.902344 469.648438 " fill-opacity="1" fill-rule="nonzero"/><path fill="#000000" d="M 532.855469 470.1875 C 508.410156 484.601562 486.617188 497.171875 467.777344 514.019531 C 452.503906 527.667969 448.789062 546.65625 456.882812 564.859375 C 464.113281 581.140625 483.273438 591.914062 501.054688 589.699219 C 520.609375 587.289062 534.382812 574.253906 538.070312 553.542969 C 542.917969 526.390625 536.03125 499.949219 532.855469 470.164062 Z M 532.855469 470.1875 " fill-opacity="1" fill-rule="nonzero"/><path fill="#000000" d="M 439.296875 614.886719 C 419.691406 626.644531 400.089844 638.425781 383.09375 653.820312 C 366.050781 669.242188 365.1875 697.011719 380.609375 713.980469 C 393.179688 727.804688 410.9375 732.109375 428.351562 725.515625 C 447.191406 718.382812 456.585938 701.90625 456.636719 668.308594 C 455.308594 657.3125 452.847656 638.890625 450.976562 620.394531 C 450.042969 611.246094 446.355469 610.65625 439.320312 614.886719 Z M 439.296875 614.886719 " fill-opacity="1" fill-rule="nonzero"/><path fill="#000000" d="M 273.789062 614.246094 C 252.121094 627.332031 229.765625 639.628906 212.746094 658.9375 C 201.183594 672.070312 200.398438 687.617188 207.113281 702.988281 C 213.554688 717.71875 224.84375 726.992188 241.816406 727.953125 C 272.167969 729.675781 290 709.851562 290.046875 668.921875 C 288.5 656.058594 286.335938 638.152344 284.242188 620.246094 C 283.433594 613.410156 280.898438 609.941406 273.765625 614.246094 Z M 273.789062 614.246094 " fill-opacity="1" fill-rule="nonzero"/><path fill="#000000" d="M 569.210938 270.839844 C 560.085938 269.757812 557.429688 265.40625 554.574219 258.074219 C 533.003906 202.882812 494.046875 177.179688 435.628906 180.304688 C 424.167969 180.917969 417.578125 178.214844 410.273438 168.671875 C 378.175781 126.613281 336.386719 103.125 281.90625 110.257812 C 222.730469 118.003906 184.976562 152.804688 164.488281 207.582031 C 161.4375 215.773438 158.660156 220.222656 148.550781 220.765625 C 81.992188 224.28125 38.582031 273.914062 40.597656 343.054688 C 42.371094 404.394531 92.273438 451.519531 155.757812 451.59375 C 222.238281 451.695312 288.695312 451.59375 355.179688 451.59375 C 422.863281 451.59375 490.550781 451.867188 558.238281 451.496094 C 605.464844 451.25 644.03125 415.488281 646.6875 370.476562 C 649.933594 315.777344 620.097656 276.867188 569.210938 270.839844 Z M 569.210938 270.839844 " fill-opacity="1" fill-rule="nonzero"/><path fill="#000000" d="M 736.78125 237.882812 C 731.8125 192.40625 707.832031 157.875 664.714844 141.910156 C 647.324219 135.464844 641.078125 126.292969 635.398438 110.871094 C 609.496094 40.503906 518.34375 15.5625 461.652344 62.394531 C 447.953125 73.707031 440.992188 92.179688 427.414062 101.328125 C 413.9375 110.429688 393.597656 100.148438 373.378906 107.402344 C 393.105469 119.699219 408.179688 132.6875 420.355469 148.453125 C 426.210938 156.054688 432.1875 158.511719 441.582031 158.363281 C 500.980469 157.429688 542.128906 186.230469 568.445312 238.152344 C 571.175781 243.566406 572.824219 248.65625 580.082031 250.351562 C 633.160156 262.796875 660.335938 298.414062 667.296875 350.753906 C 668.847656 362.386719 672.683594 362.042969 680.554688 356.925781 C 723.890625 328.839844 742.289062 288.304688 736.753906 237.859375 Z M 736.78125 237.882812 " fill-opacity="1" fill-rule="nonzero"/><path fill="#003780" d="M 215.597656 464.230469 C 197.835938 471.207031 165.265625 492.347656 154.839844 503.285156 C 135.007812 524.132812 139.714844 555.105469 164.613281 567.421875 C 191.851562 580.90625 220.257812 562.511719 222.128906 529.535156 C 223.34375 507.945312 219.605469 486.652344 215.597656 464.230469 Z M 215.597656 464.230469 " fill-opacity="1" fill-rule="nonzero"/><path fill="#003780" d="M 367.976562 461.527344 C 345.039062 476.789062 323.023438 487.28125 305.9375 504.839844 C 294.523438 516.566406 292.136719 536.152344 299.699219 550.851562 C 306.972656 565.011719 324.550781 573.566406 341.527344 571.226562 C 356.96875 569.085938 369.640625 556.414062 372.792969 539.394531 C 377.519531 514 371.644531 489.351562 367.976562 461.550781 Z M 367.976562 461.527344 " fill-opacity="1" fill-rule="nonzero"/><path fill="#003780" d="M 520.78125 462.023438 C 498.40625 475.214844 478.460938 486.71875 461.214844 502.136719 C 447.238281 514.632812 443.839844 532.011719 451.246094 548.667969 C 457.863281 563.570312 475.398438 573.429688 491.675781 571.40625 C 509.570312 569.199219 522.175781 557.269531 525.554688 538.3125 C 529.988281 513.460938 523.683594 489.261719 520.78125 462 Z M 520.78125 462.023438 " fill-opacity="1" fill-rule="nonzero"/><path fill="#003780" d="M 435.148438 594.457031 C 417.207031 605.214844 399.265625 616 383.710938 630.089844 C 368.109375 644.207031 367.324219 669.621094 381.4375 685.152344 C 392.941406 697.804688 409.195312 701.742188 425.132812 695.710938 C 442.375 689.183594 450.972656 674.101562 451.019531 643.351562 C 449.804688 633.289062 447.550781 616.425781 445.839844 599.5 C 444.984375 591.125 441.609375 590.585938 435.171875 594.457031 Z M 435.148438 594.457031 " fill-opacity="1" fill-rule="nonzero"/><path fill="#003780" d="M 283.671875 593.871094 C 263.839844 605.847656 243.378906 617.101562 227.800781 634.773438 C 217.21875 646.792969 216.5 661.019531 222.644531 675.089844 C 228.542969 688.574219 238.875 697.0625 254.40625 697.9375 C 282.1875 699.515625 298.507812 681.371094 298.550781 643.914062 C 297.132812 632.140625 295.152344 615.75 293.238281 599.363281 C 292.496094 593.105469 290.179688 589.929688 283.648438 593.871094 Z M 283.671875 593.871094 " fill-opacity="1" fill-rule="nonzero"/><path fill="#003780" d="M 554.050781 279.570312 C 545.699219 278.582031 543.269531 274.597656 540.65625 267.890625 C 520.914062 217.375 485.257812 193.851562 431.792969 196.707031 C 421.304688 197.273438 415.273438 194.796875 408.585938 186.0625 C 379.210938 147.566406 340.960938 126.070312 291.101562 132.597656 C 236.941406 139.6875 202.386719 171.542969 183.632812 221.671875 C 180.84375 229.167969 178.296875 233.246094 169.046875 233.738281 C 108.132812 236.957031 68.398438 282.386719 70.246094 345.664062 C 71.867188 401.808594 117.539062 444.9375 175.640625 445.003906 C 236.488281 445.09375 297.3125 445.003906 358.160156 445.003906 C 420.113281 445.003906 482.0625 445.253906 544.011719 444.914062 C 587.234375 444.691406 622.53125 411.960938 624.960938 370.765625 C 627.933594 320.699219 600.628906 285.085938 554.050781 279.570312 Z M 554.050781 279.570312 " fill-opacity="1" fill-rule="nonzero"/><path fill="#003780" d="M 707.417969 249.40625 C 702.871094 207.785156 680.925781 176.179688 641.460938 161.570312 C 625.546875 155.671875 619.828125 147.273438 614.628906 133.160156 C 590.925781 68.757812 507.5 45.929688 455.613281 88.789062 C 443.074219 99.144531 436.703125 116.050781 424.277344 124.425781 C 411.941406 132.753906 393.324219 123.34375 374.820312 129.984375 C 392.875 141.242188 406.671875 153.128906 417.816406 167.558594 C 423.171875 174.511719 428.644531 176.765625 437.242188 176.628906 C 491.605469 175.773438 529.269531 202.132812 553.355469 249.65625 C 555.851562 254.605469 557.363281 259.265625 564.003906 260.820312 C 612.582031 272.210938 637.457031 304.808594 643.828125 352.710938 C 645.246094 363.359375 648.757812 363.042969 655.960938 358.359375 C 695.625 332.652344 712.460938 295.554688 707.398438 249.382812 Z M 707.417969 249.40625 " fill-opacity="1" fill-rule="nonzero"/></svg>