<svg xmlns="http://www.w3.org/2000/svg" xmlns:xlink="http://www.w3.org/1999/xlink" width="1024" zoomAndPan="magnify" viewBox="0 0 768 767.999994" height="1024" preserveAspectRatio="xMidYMid meet" version="1.0"><defs><clipPath id="7afd238652"><path d="M 0 44.84375 L 757 44.84375 L 757 691.199219 L 0 691.199219 Z M 0 44.84375 " clip-rule="nonzero"/></clipPath><clipPath id="8d9a9c25cc"><path d="M 378.355469 44.84375 L 756.714844 691.199219 L 0 691.199219 Z M 378.355469 44.84375 " clip-rule="nonzero"/></clipPath><clipPath id="2781ad122b"><path d="M 19.023438 66.636719 L 735 66.636719 L 735 681.859375 L 19.023438 681.859375 Z M 19.023438 66.636719 " clip-rule="nonzero"/></clipPath><clipPath id="1a6f572585"><path d="M 376.941406 66.636719 L 734.859375 681.859375 L 19.023438 681.859375 Z M 376.941406 66.636719 " clip-rule="nonzero"/></clipPath><clipPath id="252e666136"><path d="M 87.683594 131.863281 L 671 131.863281 L 671 645.617188 L 87.683594 645.617188 Z M 87.683594 131.863281 " clip-rule="nonzero"/></clipPath><clipPath id="967130c053"><path d="M 379.242188 131.863281 L 670.800781 645.617188 L 87.683594 645.617188 Z M 379.242188 131.863281 " clip-rule="nonzero"/></clipPath></defs><rect x="-76.8" width="921.6" fill="#ffffff" y="-76.799999" height="921.599993" fill-opacity="1"/><rect x="-76.8" width="921.6" fill="#ffcc80" y="-76.799999" height="921.599993" fill-opacity="1"/><g clip-path="url(#7afd238652)"><g clip-path="url(#8d9a9c25cc)"><path fill="#f98600" d="M 0 44.84375 L 757.449219 44.84375 L 757.449219 691.199219 L 0 691.199219 Z M 0 44.84375 " fill-opacity="1" fill-rule="nonzero"/></g></g><g clip-path="url(#2781ad122b)"><g clip-path="url(#1a6f572585)"><path fill="#000000" d="M 19.023438 66.636719 L 735.183594 66.636719 L 735.183594 681.859375 L 19.023438 681.859375 Z M 19.023438 66.636719 " fill-opacity="1" fill-rule="nonzero"/></g></g><g clip-path="url(#252e666136)"><g clip-path="url(#967130c053)"><path fill="#f98600" d="M 87.683594 131.863281 L 671.675781 131.863281 L 671.675781 645.617188 L 87.683594 645.617188 Z M 87.683594 131.863281 " fill-opacity="1" fill-rule="nonzero"/></g></g><path fill="#000000" d="M 466.652344 546.246094 C 441.121094 546.246094 439.289062 559.339844 423.050781 559.339844 C 407.46875 559.339844 404.457031 546.246094 379.320312 546.246094 C 353.917969 546.246094 351.953125 559.339844 335.714844 559.339844 C 319.480469 559.339844 317.648438 546.246094 292.113281 546.246094 C 266.582031 546.246094 264.617188 559.339844 248.382812 559.339844 L 248.382812 585.527344 C 273.914062 585.527344 276.007812 572.433594 292.113281 572.433594 C 308.351562 572.433594 310.183594 585.527344 335.714844 585.527344 C 361.25 585.527344 363.214844 572.433594 379.320312 572.433594 C 395.425781 572.433594 397.78125 585.527344 423.050781 585.527344 C 448.324219 585.527344 450.546875 572.433594 466.652344 572.433594 C 482.628906 572.433594 484.984375 585.527344 510.257812 585.527344 L 510.257812 559.339844 C 494.019531 559.339844 492.1875 546.246094 466.652344 546.246094 M 335.847656 526.605469 C 361.378906 526.605469 363.214844 513.511719 379.320312 513.511719 C 395.03125 513.511719 398.042969 526.605469 423.050781 526.605469 C 448.585938 526.605469 450.417969 513.511719 466.652344 513.511719 C 482.234375 513.511719 484.984375 526.605469 510.257812 526.605469 L 510.257812 500.417969 C 501.746094 500.417969 497.164062 496.75 490.617188 493.214844 L 464.429688 394.621094 L 491.53125 405.75 L 501.222656 381.394531 L 350.25 323.652344 L 248.382812 449.484375 L 268.9375 465.589844 L 287.136719 442.28125 L 299.316406 487.847656 C 296.957031 487.324219 294.734375 487.324219 291.984375 487.324219 C 266.449219 487.324219 264.617188 500.417969 248.382812 500.417969 L 248.382812 526.605469 C 273.257812 526.605469 276.792969 513.511719 292.246094 513.511719 C 307.828125 513.511719 310.839844 526.605469 335.847656 526.605469 M 406.03125 430.757812 L 424.621094 500.417969 C 407.078125 501.464844 405.507812 487.324219 379.320312 487.324219 C 374.472656 487.324219 370.675781 487.847656 367.273438 488.632812 L 355.355469 444.246094 Z M 406.03125 430.757812 " fill-opacity="1" fill-rule="nonzero"/></svg>