<svg xmlns="http://www.w3.org/2000/svg" xmlns:xlink="http://www.w3.org/1999/xlink" width="1024" zoomAndPan="magnify" viewBox="0 0 768 767.999994" height="1024" preserveAspectRatio="xMidYMid meet" version="1.0"><defs><clipPath id="8f10b50aad"><path d="M 22 55 L 746 55 L 746 690.980469 L 22 690.980469 Z M 22 55 " clip-rule="nonzero"/></clipPath></defs><rect x="-76.8" width="921.6" fill="#ffffff" y="-76.799999" height="921.599993" fill-opacity="1"/><rect x="-76.8" width="921.6" fill="#ffcc80" y="-76.799999" height="921.599993" fill-opacity="1"/><g clip-path="url(#8f10b50aad)"><path fill="#f98600" d="M 385.148438 55.097656 L 386.46875 56.414062 L 393.058594 56.414062 L 395.695312 57.730469 L 397.011719 57.730469 L 399.648438 59.050781 L 402.285156 60.367188 L 404.921875 61.6875 L 407.558594 63.003906 L 408.875 65.640625 L 410.195312 66.957031 L 412.832031 68.277344 L 414.148438 70.914062 L 418.101562 74.867188 L 579.242188 354.308594 L 738.734375 632.101562 L 740.054688 634.738281 L 742.6875 640.007812 L 744.007812 642.644531 L 744.007812 649.234375 L 745.324219 651.871094 L 744.007812 655.828125 L 744.007812 661.097656 L 742.6875 663.734375 L 741.371094 666.371094 L 741.371094 669.007812 L 738.734375 671.644531 L 737.417969 674.28125 L 736.097656 675.597656 L 734.78125 676.917969 L 733.460938 678.234375 L 732.144531 680.871094 L 730.824219 682.1875 L 728.191406 683.507812 L 725.554688 684.824219 L 722.917969 686.144531 L 721.597656 687.460938 L 718.960938 688.78125 L 716.328125 688.78125 L 713.691406 690.097656 L 708.417969 690.097656 L 705.78125 691.417969 L 383.832031 691.417969 L 63.199219 690.097656 L 53.972656 690.097656 L 51.335938 688.78125 L 48.699219 688.78125 L 46.0625 687.460938 L 44.746094 686.144531 L 42.109375 684.824219 L 39.472656 683.507812 L 36.835938 682.1875 L 32.882812 678.234375 L 31.566406 675.597656 L 30.246094 674.28125 L 28.929688 671.644531 L 26.292969 669.007812 L 26.292969 666.371094 L 24.972656 665.054688 L 24.972656 662.417969 L 23.65625 661.097656 L 23.65625 655.828125 L 22.339844 651.871094 L 23.65625 649.234375 L 23.65625 642.644531 L 26.292969 637.371094 L 26.292969 634.738281 L 28.929688 632.101562 L 188.421875 354.308594 L 349.5625 76.183594 L 350.878906 73.550781 L 353.515625 70.914062 L 354.832031 68.277344 L 356.152344 66.957031 L 358.789062 64.324219 L 360.105469 63.003906 L 362.742188 61.6875 L 364.058594 60.367188 L 368.015625 59.050781 L 370.652344 57.730469 L 373.285156 57.730469 L 375.921875 56.414062 L 382.511719 56.414062 L 385.148438 55.097656 " fill-opacity="1" fill-rule="evenodd"/></g><path fill="#1f1a17" d="M 387.785156 74.867188 L 389.105469 76.1875 L 391.742188 77.503906 L 394.375 78.820312 L 395.695312 78.820312 L 397.011719 81.457031 L 400.96875 85.414062 L 721.597656 641.328125 L 722.917969 642.644531 L 724.234375 643.964844 L 724.234375 646.601562 L 725.554688 647.917969 L 725.554688 653.191406 L 724.234375 657.144531 L 722.917969 659.78125 L 721.597656 662.417969 L 718.964844 665.054688 L 716.328125 667.691406 L 713.691406 669.007812 L 711.054688 670.328125 L 707.101562 671.644531 L 59.246094 671.644531 L 57.925781 670.328125 L 55.292969 670.328125 L 53.972656 669.007812 L 52.65625 669.007812 L 51.335938 667.691406 L 48.699219 666.371094 L 46.066406 663.734375 L 44.746094 659.78125 L 43.429688 657.144531 L 42.109375 653.191406 L 42.109375 650.554688 L 43.429688 646.601562 L 44.746094 643.964844 L 44.746094 641.328125 L 46.066406 641.328125 L 366.695312 85.414062 L 366.695312 84.09375 L 368.015625 82.777344 L 369.332031 81.457031 L 373.285156 77.503906 L 374.605469 77.503906 L 375.921875 76.1875 L 379.878906 76.1875 L 381.195312 74.867188 Z M 658.328125 624.191406 L 109.335938 624.191406 L 383.832031 148.683594 L 658.328125 624.191406 " fill-opacity="1" fill-rule="evenodd"/><path fill="#1f1a17" d="M 339.015625 281.8125 L 340.335938 279.175781 L 340.335938 275.222656 L 341.652344 272.585938 L 341.652344 268.632812 L 342.96875 267.3125 L 342.96875 265.996094 L 346.925781 259.402344 L 349.5625 254.132812 L 354.832031 250.175781 L 358.789062 246.222656 L 365.378906 243.585938 L 370.652344 240.949219 L 377.242188 239.632812 L 382.515625 239.632812 L 389.105469 240.949219 L 394.375 242.269531 L 400.96875 243.585938 L 404.921875 247.542969 L 410.195312 250.175781 L 414.148438 254.132812 L 418.101562 259.402344 L 420.738281 263.359375 L 420.738281 265.996094 L 422.058594 267.3125 L 423.375 269.949219 L 423.375 272.585938 L 424.695312 275.222656 L 424.695312 281.8125 L 408.875 455.472656 L 407.558594 460.746094 L 406.238281 464.699219 L 402.285156 468.65625 L 399.648438 472.609375 L 395.695312 475.246094 L 391.742188 476.5625 L 387.785156 477.882812 L 378.558594 477.882812 L 373.285156 476.5625 L 369.332031 475.246094 L 361.425781 469.972656 L 358.789062 466.019531 L 356.152344 460.746094 L 354.832031 455.472656 Z M 382.515625 504.246094 L 391.742188 505.5625 L 399.648438 508.199219 L 406.238281 512.152344 L 412.832031 517.425781 L 418.101562 524.015625 L 422.058594 530.605469 L 424.695312 538.515625 L 426.011719 547.742188 L 424.695312 555.652344 L 422.058594 563.558594 L 418.101562 571.46875 L 412.832031 578.058594 L 406.238281 583.332031 L 399.648438 587.285156 L 391.742188 589.921875 L 374.605469 589.921875 L 366.695312 587.285156 L 358.789062 583.332031 L 352.195312 578.058594 L 346.925781 571.46875 L 342.96875 563.558594 L 340.335938 555.652344 L 340.335938 538.515625 L 342.96875 530.605469 L 346.925781 524.015625 L 352.195312 517.425781 L 358.789062 512.152344 L 366.695312 508.199219 L 374.605469 505.5625 L 382.515625 504.242188 " fill-opacity="1" fill-rule="evenodd"/></svg>