<svg xmlns="http://www.w3.org/2000/svg" xmlns:xlink="http://www.w3.org/1999/xlink" width="1024" zoomAndPan="magnify" viewBox="0 0 768 767.999994" height="1024" preserveAspectRatio="xMidYMid meet" version="1.0"><defs><clipPath id="12c98179c3"><path d="M 121.613281 20.492188 L 646.613281 20.492188 L 646.613281 747.242188 L 121.613281 747.242188 Z M 121.613281 20.492188 " clip-rule="nonzero"/></clipPath><clipPath id="cb66829aa2"><path d="M 133.5 37 L 634.5 37 L 634.5 730.710938 L 133.5 730.710938 Z M 133.5 37 " clip-rule="nonzero"/></clipPath></defs><rect x="-76.8" width="921.6" fill="#ffffff" y="-76.799999" height="921.599993" fill-opacity="1"/><rect x="-76.8" width="921.6" fill="#c0e3f4" y="-76.799999" height="921.599993" fill-opacity="1"/><g clip-path="url(#12c98179c3)"><path fill="#000000" d="M 646.121094 485.441406 C 646.121094 630.304688 528.710938 747.75 383.8125 747.75 C 238.917969 747.75 121.46875 630.304688 121.46875 485.441406 C 121.46875 340.546875 383.8125 20.597656 383.8125 20.597656 C 383.8125 20.597656 646.121094 340.546875 646.121094 485.441406 " fill-opacity="1" fill-rule="nonzero"/></g><g clip-path="url(#cb66829aa2)"><path fill="#003780" d="M 634.246094 480.847656 C 634.246094 619.140625 522.152344 731.269531 383.824219 731.269531 C 245.492188 731.269531 133.367188 619.140625 133.367188 480.847656 C 133.367188 342.515625 383.824219 37.066406 383.824219 37.066406 C 383.824219 37.066406 634.246094 342.515625 634.246094 480.847656 " fill-opacity="1" fill-rule="nonzero"/></g></svg>